# File produced by Open Asset Import Library (http://www.assimp.sf.net)
# (assimp v5.0.1588609223)

mtllib result.mtl

# 254 vertex positions and colors
v  0.68088496 -0.55997419 0.43802136 0 0 0
v  0.63913804 -0.60172111 0.43802136 0 0 0
v  0.63913804 -0.60172111 0.36827844 0 0 0
v  0.68088496 -0.55997419 0.36827844 0 0 0
v  0.5821107 -0.61700153 0.43802136 0 0 0
v  0.5821107 -0.61700153 0.36827844 0 0 0
v  0.52508336 -0.60172111 0.43802136 0 0 0
v  0.52508336 -0.60172111 0.36827844 0 0 0
v  0.48333648 -0.55997419 0.43802136 0 0 0
v  0.48333648 -0.55997419 0.36827844 0 0 0
v  0.46805605 -0.50294685 0.43802136 0 0 0
v  0.46805605 -0.50294685 0.36827844 0 0 0
v  0.48333648 -0.44591951 0.43802136 0 0 0
v  0.48333648 -0.44591951 0.36827844 0 0 0
v  0.52508336 -0.40417263 0.43802136 0 0 0
v  0.52508336 -0.40417263 0.36827844 0 0 0
v  0.5821107 -0.3888922 0.43802136 0 0 0
v  0.5821107 -0.3888922 0.36827844 0 0 0
v  0.63913804 -0.40417263 0.43802136 0 0 0
v  0.63913804 -0.40417263 0.36827844 0 0 0
v  0.68088496 -0.44591951 0.43802136 0 0 0
v  0.68088496 -0.44591951 0.36827844 0 0 0
v  0.69616538 -0.50294685 0.43802136 0 0 0
v  0.69616538 -0.50294685 0.36827844 0 0 0
v  0.5821107 -0.50294685 0.43802136 0 0 0
v  -0.81516647 0.051596165 -0.22769165 0 0 0
v  0.81516647 0.051596165 -0.22769165 0 0 0
v  0.81516647 -0.81039429 -0.22769165 0 0 0
v  -0.81516647 -0.81039429 -0.22769165 0 0 0
v  0.63960266 0.89894867 -0.19838333 0 0 0
v  0.63960266 1 -0.19838333 0 0 0
v  -0.63960266 1 -0.19838333 0 0 0
v  -0.63960266 0.89894867 -0.19838333 0 0 0
v  0.63960266 0.89894867 0.18162918 0 0 0
v  -0.63960266 0.89894867 0.18162918 0 0 0
v  -0.63960266 1 0.31422043 0 0 0
v  0.57302666 0.85001373 0.18162918 0 0 0
v  -0.57302666 0.85001373 0.18162918 0 0 0
v  0.57302666 0.29656601 0.18162918 0 0 0
v  0.63960266 0.24762726 0.18162918 0 0 0
v  -0.63960266 0.24762726 0.18162918 0 0 0
v  -0.63960266 0.24762726 0.36827469 0 0 0
v  0.63960266 0.24762726 0.36827469 0 0 0
v  -0.57302666 0.29656601 0.18162918 0 0 0
v  0.57302666 0.85001373 0.1098671 0 0 0
v  -0.57302666 0.85001373 0.1098671 0 0 0
v  0.57302666 0.29656601 0.1098671 0 0 0
v  -0.57302666 0.29656601 0.1098671 0 0 0
v  0.81516647 0.051596165 -0.5 0 0 0
v  0.81516647 -0.81039429 -0.5 0 0 0
v  -0.81516647 -0.81039429 -0.5 0 0 0
v  -0.81516647 0.051596165 -0.5 0 0 0
v  -0.94594574 -1 0.3682785 0 0 0
v  0.94594574 -1 0.3682785 0 0 0
v  0.63960266 0.94594574 0.36827469 0 0 0
v  0.63960266 1 0.31422043 0 0 0
v  0.89189148 1 0.31422424 0 0 0
v  0.89189148 1 -0.44594574 0 0 0
v  -0.89189148 1 -0.44594574 0 0 0
v  -0.94594574 1 -0.39189148 0 0 0
v  -0.94594574 1 0.26016998 0 0 0
v  -0.89189148 1 0.31422424 0 0 0
v  0.96226883 -1 -0.5 0 0 0
v  -0.96226883 -1 -0.5 0 0 0
v  1 -1.0007324 -0.46912384 0 0 0
v  1 -1 0.31422424 0 0 0
v  -1 -1 0.31422424 0 0 0
v  -0.94594574 0.94594574 0.3682785 0 0 0
v  -1 0.94594574 0.31422424 0 0 0
v  1 0.94594574 0.31422424 0 0 0
v  0.94594574 0.94594574 0.3682785 0 0 0
v  0.94594574 0.94594574 -0.5 0 0 0
v  0.94594574 1 -0.39189148 0 0 0
v  1 0.94594574 -0.44594574 0 0 0
v  -1 0.94594574 -0.44594574 0 0 0
v  -0.94594574 0.94594574 -0.5 0 0 0
v  -1 -1 -0.46912384 0 0 0
v  0.94594574 1 0.26016998 0 0 0
v  -0.63960266 0.94594574 0.36827469 0 0 0
v  0.78368157 -0.23371837 0.5 0 0 0
v  0.698488 -0.31891197 0.5 0 0 0
v  0.698488 -0.31891197 0.36827844 0 0 0
v  0.78368157 -0.23371837 0.36827844 0 0 0
v  0.58211136 -0.35009497 0.5 0 0 0
v  0.58211136 -0.35009497 0.36827844 0 0 0
v  0.46573475 -0.31891197 0.5 0 0 0
v  0.46573475 -0.31891197 0.36827844 0 0 0
v  0.38054115 -0.23371837 0.5 0 0 0
v  0.38054115 -0.23371837 0.36827844 0 0 0
v  0.34935814 -0.11734176 0.5 0 0 0
v  0.34935814 -0.11734176 0.36827844 0 0 0
v  0.38054115 -0.00096514821 0.5 0 0 0
v  0.38054115 -0.00096514821 0.36827844 0 0 0
v  0.46573475 0.084228441 0.5 0 0 0
v  0.46573475 0.084228441 0.36827844 0 0 0
v  0.58211136 0.11541146 0.5 0 0 0
v  0.58211136 0.11541146 0.36827844 0 0 0
v  0.698488 0.084228441 0.5 0 0 0
v  0.698488 0.084228441 0.36827844 0 0 0
v  0.78368157 -0.00096514821 0.5 0 0 0
v  0.78368157 -0.00096514821 0.36827844 0 0 0
v  0.81486458 -0.11734176 0.5 0 0 0
v  0.81486458 -0.11734176 0.36827844 0 0 0
v  0.58211136 -0.11734176 0.5 0 0 0
v  -0.83382797 1.0342865 -0.2361352 0 0 0
v  -0.83382797 1.0342865 -0.40944129 0 0 0
v  -0.89638901 0.98896027 -0.40944129 0 0 0
v  -0.8963871 0.98896027 -0.2361352 0 0 0
v  -0.57012558 1.0342865 -0.2361352 0 0 0
v  -0.50756645 0.98896027 -0.2361352 0 0 0
v  -0.50756454 0.98896027 -0.40944129 0 0 0
v  -0.57012558 1.0342865 -0.40944129 0 0 0
v  -0.63155025 1.0591174 -0.2361352 0 0 0
v  -0.63155025 1.0591174 -0.40944129 0 0 0
v  -0.70197678 1.0712814 -0.40944129 0 0 0
v  -0.70197678 1.0712814 -0.2361352 0 0 0
v  -0.7724033 1.0591174 -0.40944129 0 0 0
v  -0.7724033 1.0591174 -0.2361352 0 0 0
v  -0.70197678 0.98896027 -0.40944129 0 0 0
v  -0.70197678 0.98896027 -0.2361352 0 0 0
v  0.68088496 -0.83348989 0.43802136 0 0 0
v  0.63913804 -0.87523681 0.43802136 0 0 0
v  0.63913804 -0.87523681 0.36827844 0 0 0
v  0.68088496 -0.83348989 0.36827844 0 0 0
v  0.5821107 -0.89051723 0.43802136 0 0 0
v  0.5821107 -0.89051723 0.36827844 0 0 0
v  0.52508336 -0.87523681 0.43802136 0 0 0
v  0.52508336 -0.87523681 0.36827844 0 0 0
v  0.48333648 -0.83348989 0.43802136 0 0 0
v  0.48333648 -0.83348989 0.36827844 0 0 0
v  0.46805605 -0.77646255 0.43802136 0 0 0
v  0.46805605 -0.77646255 0.36827844 0 0 0
v  0.48333648 -0.71943521 0.43802136 0 0 0
v  0.48333648 -0.71943521 0.36827844 0 0 0
v  0.52508336 -0.6776883 0.43802136 0 0 0
v  0.52508336 -0.6776883 0.36827844 0 0 0
v  0.5821107 -0.66240788 0.43802136 0 0 0
v  0.5821107 -0.66240788 0.36827844 0 0 0
v  0.63913804 -0.6776883 0.43802136 0 0 0
v  0.63913804 -0.6776883 0.36827844 0 0 0
v  0.68088496 -0.71943521 0.43802136 0 0 0
v  0.68088496 -0.71943521 0.36827844 0 0 0
v  0.69616538 -0.77646255 0.43802136 0 0 0
v  0.69616538 -0.77646255 0.36827844 0 0 0
v  0.5821107 -0.77646255 0.43802136 0 0 0
v  -0.66217923 -0.77646255 -0.22769165 0 0 0
v  -0.66217923 -0.00096514821 -0.22769165 0 0 0
v  -0.66217923 -0.00096514821 -0.41831568 0 0 0
v  -0.66217923 -0.77646255 -0.41831568 0 0 0
v  -0.66217923 -0.6947782 -0.5 0 0 0
v  -0.66217923 -0.082649499 -0.5 0 0 0
v  0.66217923 -0.082649499 -0.5 0 0 0
v  0.66217923 -0.6947782 -0.5 0 0 0
v  0.66217923 -0.77646255 -0.41831568 0 0 0
v  0.66217923 -0.77646255 -0.22769165 0 0 0
v  0.66217923 -0.00096514821 -0.22769165 0 0 0
v  0.66217923 -0.00096514821 -0.41831568 0 0 0
v  0.66217923 -0.060192257 -0.22769162 0 0 0
v  0.81516647 -0.060192257 -0.22769162 0 0 0
v  0.81516647 -0.060192257 -0.36026758 0 0 0
v  0.66217923 -0.060192257 -0.36026758 0 0 0
v  0.66217923 -0.1170024 -0.41707772 0 0 0
v  0.81516647 -0.1170024 -0.41707772 0 0 0
v  0.81516647 -0.66042531 -0.41707772 0 0 0
v  0.66217923 -0.66042531 -0.41707772 0 0 0
v  0.66217923 -0.71723545 -0.36026758 0 0 0
v  0.81516647 -0.71723545 -0.36026758 0 0 0
v  0.81516647 -0.71723545 -0.22769162 0 0 0
v  0.66217923 -0.71723545 -0.22769162 0 0 0
v  -0.66217923 -0.060192257 -0.22769162 0 0 0
v  -0.66217923 -0.060192257 -0.36026758 0 0 0
v  -0.81516647 -0.060192257 -0.36026758 0 0 0
v  -0.81516647 -0.060192257 -0.22769162 0 0 0
v  -0.66217923 -0.1170024 -0.41707772 0 0 0
v  -0.66217923 -0.66042531 -0.41707772 0 0 0
v  -0.81516647 -0.66042531 -0.41707772 0 0 0
v  -0.81516647 -0.1170024 -0.41707772 0 0 0
v  -0.66217923 -0.71723545 -0.36026758 0 0 0
v  -0.66217923 -0.71723545 -0.22769162 0 0 0
v  -0.81516647 -0.71723545 -0.22769162 0 0 0
v  -0.81516647 -0.71723545 -0.36026758 0 0 0
v  0.16780376 0.89894867 -0.11132431 0 0 0
v  0.16780376 0.89894867 0.10312843 0 0 0
v  0.16780376 1 0.10312843 0 0 0
v  0.16780376 1 -0.11132431 0 0 0
v  0.57302666 1 0.10312653 0 0 0
v  0.57302666 1 -0.11132431 0 0 0
v  0.57302666 0.89894867 0.10312653 0 0 0
v  0.57302666 0.89894867 -0.11132431 0 0 0
v  -0.16780376 0.89894867 -0.11132431 0 0 0
v  -0.16780376 1 -0.11132431 0 0 0
v  -0.16780376 1 0.10312843 0 0 0
v  -0.16780376 0.89894867 0.10312843 0 0 0
v  -0.57302666 1 -0.11132431 0 0 0
v  -0.57302666 1 0.10312653 0 0 0
v  -0.57302666 0.89894867 -0.11132431 0 0 0
v  -0.57302666 0.89894867 0.10312653 0 0 0
v  -0.56196761 0.97777152 -0.36193731 0 0 0
v  -0.59276462 1.0085685 -0.37997785 0 0 0
v  -0.3663258 1.2350074 -0.37997785 0 0 0
v  -0.33552885 1.2042104 -0.36193731 0 0 0
v  -0.62356162 1.0393655 -0.36193731 0 0 0
v  -0.3971228 1.2658044 -0.36193731 0 0 0
v  -0.63631821 1.0521221 -0.31838378 0 0 0
v  -0.40987939 1.278561 -0.31838378 0 0 0
v  -0.62356162 1.0393655 -0.27483025 0 0 0
v  -0.3971228 1.2658044 -0.27483025 0 0 0
v  -0.59276462 1.0085685 -0.25678971 0 0 0
v  -0.3663258 1.2350074 -0.25678971 0 0 0
v  -0.56196761 0.97777152 -0.27483025 0 0 0
v  -0.33552885 1.2042104 -0.27483025 0 0 0
v  -0.54921103 0.96501493 -0.31838378 0 0 0
v  -0.32277226 1.1914538 -0.31838378 0 0 0
v  -0.3663258 1.2350074 -0.31838378 0 0 0
v  -0.35059333 1.2189296 -0.340877 0 0 0
v  -0.36649841 1.2348348 -0.35019398 0 0 0
v  0.040142119 1.6414753 -0.35019398 0 0 0
v  0.056047201 1.6255702 -0.340877 0 0 0
v  -0.38240349 1.2507398 -0.340877 0 0 0
v  0.024237037 1.6573803 -0.340877 0 0 0
v  -0.38899159 1.2573279 -0.31838378 0 0 0
v  0.017648935 1.6639684 -0.31838378 0 0 0
v  -0.38240349 1.2507398 -0.29589057 0 0 0
v  0.024237037 1.6573803 -0.29589057 0 0 0
v  -0.36649841 1.2348348 -0.28657359 0 0 0
v  0.040142119 1.6414753 -0.28657359 0 0 0
v  -0.35059333 1.2189296 -0.29589057 0 0 0
v  0.056047201 1.6255702 -0.29589057 0 0 0
v  -0.34400523 1.2123415 -0.31838378 0 0 0
v  0.062635303 1.6189821 -0.31838378 0 0 0
v  0.067798257 1.6138189 -0.35749573 0 0 0
v  0.040142 1.6414751 -0.37369642 0 0 0
v  0.17423511 1.7755681 -0.37369642 0 0 0
v  0.2018913 1.7479119 -0.35749573 0 0 0
v  0.012485683 1.6691314 -0.35749573 0 0 0
v  0.14657873 1.8032244 -0.35749573 0 0 0
v  0.0010300279 1.6805872 -0.31838378 0 0 0
v  0.13512307 1.8146802 -0.31838378 0 0 0
v  0.012485683 1.6691314 -0.27927184 0 0 0
v  0.14657873 1.8032244 -0.27927184 0 0 0
v  0.040142 1.6414751 -0.26307115 0 0 0
v  0.17423511 1.7755681 -0.26307115 0 0 0
v  0.067798316 1.6138188 -0.27927184 0 0 0
v  0.20189142 1.7479118 -0.27927184 0 0 0
v  0.079253912 1.6023632 -0.31838378 0 0 0
v  0.21334696 1.7364563 -0.31838378 0 0 0
v  -0.16780376 0.76144624 -0.11132431 0 0 0
v  -0.16780376 0.86249757 -0.11132431 0 0 0
v  -0.16780376 0.86249757 0.10312843 0 0 0
v  -0.16780376 0.76144624 0.10312843 0 0 0
v  -0.57302666 0.86249757 -0.11132431 0 0 0
v  -0.57302666 0.86249757 0.10312653 0 0 0
v  -0.57302666 0.76144624 -0.11132431 0 0 0
v  -0.57302666 0.76144624 0.10312653 0 0 0

# 0 UV coordinates

# 186 vertex normals
vn 0.70710653 -0.70710707 0
vn 0.49999982 -0.86602563 0
vn 0 -1 0
vn -0.5 -0.86602539 0
vn -0.86602557 -0.49999988 0
vn -1 0 0
vn -0.86602545 0.49999991 0
vn -0.49999988 0.86602557 0
vn 0 1 0
vn 0.49999967 0.86602569 0
vn 0.86602533 0.5000003 0
vn 1 0 0
vn 0.96592593 -0.25881901 0
vn 5.7274849e-07 0 1
vn 5.7274889e-07 0 1
vn 1.4318718e-07 0 1
vn 5.7274815e-07 0 1
vn 2.8637433e-07 0 1
vn -2.8637473e-07 0 1
vn 0 0 1
vn -5.7274849e-07 0 1
vn 5.727486e-07 0 1
vn 0 0 -1
vn 1 3.3040246e-07 0
vn 1 2.4177339e-07 0
vn 1 1.0794405e-07 0
vn -2.2618519e-06 2.5077866e-06 1
vn 2.2618519e-06 2.5077866e-06 1
vn 3.3452289e-07 2.9763744e-06 1
vn -3.3452289e-07 2.9763744e-06 1
vn -1 2.4177339e-07 0
vn -1 1.0794406e-07 0
vn -0.00010343568 -1 4.7930503e-06
vn -0.0078871697 -0.99996883 0.00036547935
vn -0.0078871707 -0.99996883 0.00036547935
vn -8.5845866e-05 -1 3.9779657e-06
vn -0.70710695 0 0.70710659
vn 0.70710695 0 0.70710659
vn 0.40824842 0.81649631 -0.40824869
vn 0.67917985 0.0072181546 -0.73393643
vn 0.67917985 0.0072181551 -0.73393649
vn 0.67917985 0.0072181551 -0.73393643
vn -0.40824842 0.81649631 -0.40824869
vn -0.67914879 0.0072195553 -0.73396516
vn -0.67914879 0.0072195544 -0.73396516
vn -0.67914873 0.0072195539 -0.73396516
vn -0.67914873 0.0072195549 -0.73396522
vn 0.40824842 0.81649631 0.40824869
vn -0.40824842 0.81649631 0.40824869
vn -1.2428482e-05 0 1
vn 1.2428482e-05 0 1
vn 0 0.70710689 -0.70710677
vn 0.70710725 0.70710629 0
vn 0.70710737 0.70710629 0
vn -9.5958558e-06 0.70710444 0.70710909
vn -9.5958558e-06 0.70710444 0.70710915
vn -9.5958567e-06 0.70710444 0.70710915
vn -9.5958549e-06 0.70710444 0.70710909
vn -0.70710737 0.70710629 0
vn -0.70710725 0.70710629 0
vn 9.5958567e-06 0.70710444 0.70710915
vn 9.5958558e-06 0.70710444 0.70710915
vn 9.5958558e-06 0.70710444 0.70710909
vn 9.5958549e-06 0.70710444 0.70710909
vn -1.2259457e-05 0 1
vn -1 3.3040246e-07 0
vn 1.2259457e-05 0 1
vn 0.70710683 -0.70710683 0
vn 0.49999997 -0.86602545 0
vn -0.49999997 -0.86602545 0
vn -0.86602545 -0.5 0
vn -0.86602545 0.5 0
vn -0.50000006 0.86602545 0
vn 0.50000006 0.86602545 0
vn 0.86602545 0.5 0
vn -0.49247664 0.87032568 1.8106776e-06
vn -0.58671457 0.80979383 3.3389108e-06
vn -0.58671463 0.80979389 3.3389113e-06
vn 0.49247643 0.8703258 1.810677e-06
vn 0.58671433 0.80979401 3.3389094e-06
vn 0.58671433 0.80979401 3.3389097e-06
vn 0.27014861 0.96281862 0
vn -1.2144237e-08 1 0
vn -0.27014858 0.96281874 0
vn 5.0820102e-08 0 -1
vn -1.0509657e-07 0 1
vn 2.8258222e-08 0 1
vn -2.8258222e-08 0 1
vn 1.0509657e-07 0 1
vn -5.0820102e-08 0 -1
vn -0.86602557 0.49999988 0
vn -0.5 0.86602539 0
vn 0.49999982 0.86602563 0
vn 0.86602539 0.50000024 0
vn 5.7274912e-07 0 1
vn 5.7274883e-07 0 1
vn 1.0866614e-14 0 1
vn 2.863747e-07 0 1
vn -2.863745e-07 0 1
vn -5.7274895e-07 0 1
vn -5.7274917e-07 0 1
vn -5.7274883e-07 0 1
vn -2.8637476e-07 0 1
vn 2.8637393e-07 0 1
vn 0 -0.70710671 -0.70710683
vn 0 0.70710665 -0.70710695
vn 0 0.70710671 -0.70710689
vn 0 -0.70710665 -0.70710689
vn 4.7079798e-06 0 1
vn -4.7079798e-06 0 1
vn 0.49999976 -0.49999979 -0.70710713
vn 0.27059895 -0.27059889 -0.92387903
vn 0.27059895 -0.27059889 -0.92387909
vn 0.49999967 -0.49999967 -0.70710731
vn -0.27059895 0.27059892 -0.92387903
vn -0.49999988 0.49999997 -0.70710695
vn -0.49999991 0.5 -0.70710689
vn -0.27059892 0.27059889 -0.92387903
vn -0.70710683 0.70710677 2.1254991e-08
vn -0.70710683 0.70710683 2.1254994e-08
vn -0.50000012 0.5 0.70710677
vn -0.50000018 0.50000006 0.70710671
vn 5.313748e-08 -3.188249e-08 1
vn -8.5019991e-08 1.0627499e-07 1
vn 0.5 -0.49999976 0.70710707
vn 0.49999988 -0.49999964 0.70710719
vn 0.70710689 -0.70710671 -4.2509999e-08
vn 0.70710689 -0.70710671 -4.2509992e-08
vn 0.70710695 0.70710665 0
vn 0.70710665 0.70710695 0
vn 0.70710707 0.70710647 3.4716672e-07
vn 0.70710701 0.70710659 0
vn 0.70710748 0.70710617 0
vn 0.70710695 0.70710659 0
vn 0.70710683 0.70710683 0
vn 0.70710731 0.70710629 1.3886656e-06
vn 0.70710731 0.70710629 1.3886662e-06
vn 0.50000048 -0.5000006 -0.70710605
vn 0.27059862 -0.27059838 -0.92387933
vn 0.27059862 -0.27059835 -0.92387927
vn 0.50000024 -0.50000036 -0.70710635
vn -0.27059862 0.27059838 -0.92387927
vn -0.50000048 0.50000066 -0.70710599
vn -0.50000024 0.50000042 -0.70710635
vn -0.70710683 0.70710677 6.8753373e-08
vn -0.50000072 0.50000054 0.70710593
vn -0.50000048 0.5000003 0.70710623
vn -8.0212423e-08 9.1671339e-08 1
vn -9.1671538e-08 9.1671538e-08 1
vn 0.50000072 -0.50000054 0.70710593
vn 0.50000054 -0.5000003 0.70710623
vn 0.70710683 -0.70710677 4.5835606e-08
vn 0.50000054 -0.50000072 -0.70710588
vn 0.27059844 -0.27059859 -0.92387927
vn 0.27059841 -0.27059856 -0.92387927
vn 0.50000066 -0.50000083 -0.70710582
vn -0.27059793 0.27059808 -0.92387962
vn -0.49999928 0.49999943 -0.70710766
vn -0.49999952 0.4999997 -0.70710742
vn -0.27059793 0.27059808 -0.92387956
vn -0.70710671 0.70710689 6.9945082e-07
vn -0.70710671 0.70710689 7.1943691e-07
vn -0.49999905 0.49999893 0.7071082
vn -0.4999992 0.49999914 0.70710796
vn 2.9976498e-08 -8.9929493e-08 1
vn 1.8985122e-07 -2.298199e-07 1
vn 0.5000006 -0.50000054 0.70710605
vn 0.50000066 -0.5000006 0.70710599
vn 0.70710671 -0.70710689 -8.5932578e-07
vn 0.70710671 -0.70710689 -9.9921635e-07
vn -0.70710695 -0.70710665 -4.8762161e-07
vn -0.70710635 -0.70710725 0
vn -0.70710695 -0.70710659 -4.8762166e-07
vn -0.70710701 -0.70710665 -2.0480131e-06
vn -0.70710599 -0.70710754 1.17584e-05
vn -0.70710695 -0.70710659 -2.0480111e-06
vn 0.70710689 0.70710671 2.2695938e-06
vn 0.70710689 0.70710677 3.7059249e-06
vn 0.70710683 0.70710683 3.7059237e-06
vn 0.70710689 0.70710671 2.2695965e-06
vn 0.70710695 0.70710671 9.7523028e-08
vn 0.70710689 0.70710671 9.7525579e-08
vn 0.70710516 0.70710844 -1.1758409e-05
vn 0.70710552 0.70710808 -5.8791902e-06
vn -0.70710695 -0.70710659 -1.5130613e-06
vn -0.70710701 -0.70710665 -1.5130627e-06

# Mesh 'obj_interactive_radio_off_lod0' with 219 faces
g obj_interactive_radio_off_lod0
usemtl radio
f  1//1 2//2 3//2 4//1
f  2//2 5//3 6//3 3//2
f  5//3 7//4 8//4 6//3
f  7//4 9//5 10//5 8//4
f  9//5 11//6 12//6 10//5
f  11//6 13//7 14//7 12//6
f  13//7 15//8 16//8 14//7
f  15//8 17//9 18//9 16//8
f  17//9 19//10 20//10 18//9
f  19//10 21//11 22//11 20//10
f  21//11 23//12 24//12 22//11
f  23//12 1//13 4//13 24//12
f  2//14 1//15 25//16
f  5//17 2//14 25//16
f  7//18 5//17 25//16
f  9//19 7//18 25//16
f  11//20 9//19 25//16
f  13//20 11//20 25//16
f  15//21 13//20 25//16
f  17//20 15//21 25//16
f  19//22 17//20 25//16
f  21//20 19//22 25//16
f  23//20 21//20 25//16
f  1//15 23//20 25//16
f  26//23 27//23 28//23 29//23
f  30//20 31//20 32//20 33//20
f  34//9 30//9 33//9 35//9
f  32//24 36//25 35//26 33//24
f  37//20 34//20 35//20 38//20
f  39//20 40//20 34//20 37//20
f  41//9 42//9 43//9 40//9
f  38//20 35//20 41//20 44//20
f  45//3 37//3 38//3 46//3
f  44//20 41//20 40//20 39//20
f  47//6 39//6 37//6 45//6
f  46//12 38//12 44//12 48//12
f  47//20 45//20 46//20 48//20
f  48//9 44//9 39//9 47//9
f  27//6 49//6 50//6 28//6
f  28//9 50//9 51//9 29//9
f  29//12 51//12 52//12 26//12
f  26//3 52//3 49//3 27//3
f  43//27 42//28 53//29 54//30
f  55//6 56//31 34//32
f  57//9 58//9 31//9 56//9
f  59//9 60//9 61//9 62//9
f  50//23 63//23 64//23 51//23
f  63//33 65//34 66//35 54//36
f  67//37 53//37 68//37 69//37
f  54//38 66//38 70//38 71//38
f  72//39 58//39 73//39 74//39
f  63//40 72//40 74//41 65//42
f  75//43 60//43 59//43 76//43
f  77//44 75//45 76//46 64//47
f  70//48 78//48 57//48 71//48
f  68//49 62//49 61//49 69//49
f  43//27 54//30 71//50
f  68//51 53//29 42//28
f  59//52 58//52 72//52 76//52
f  70//53 74//53 73//54 78//54
f  55//55 71//56 57//57 56//58
f  61//59 60//59 75//60 69//60
f  62//61 68//62 79//63 36//64
f  65//12 74//12 70//12 66//12
f  55//65 43//27 71//50
f  75//6 77//6 67//6 69//6
f  49//23 72//23 63//23 50//23
f  64//23 76//23 52//23 51//23
f  52//23 76//23 72//23 49//23
f  73//9 58//9 57//9 78//9
f  32//9 59//9 62//9 36//9
f  32//9 31//9 58//9 59//9
f  42//12 41//12 35//26 79//12
f  79//12 35//26 36//25
f  43//6 55//6 34//32 40//6
f  34//32 56//31 31//66 30//66
f  64//3 53//3 67//3 77//3
f  63//33 54//36 53//3 64//3
f  68//51 42//28 79//67
f  80//68 81//69 82//69 83//68
f  81//69 84//3 85//3 82//69
f  84//3 86//70 87//70 85//3
f  86//70 88//71 89//71 87//70
f  88//71 90//6 91//6 89//71
f  90//6 92//72 93//72 91//6
f  92//72 94//73 95//73 93//72
f  94//73 96//9 97//9 95//73
f  96//9 98//74 99//74 97//9
f  98//74 100//75 101//75 99//74
f  100//75 102//12 103//12 101//75
f  102//12 80//13 83//13 103//12
f  81//20 80//20 104//20
f  84//20 81//20 104//20
f  86//20 84//20 104//20
f  88//20 86//20 104//20
f  90//20 88//20 104//20
f  92//20 90//20 104//20
f  94//20 92//20 104//20
f  96//20 94//20 104//20
f  98//20 96//20 104//20
f  100//20 98//20 104//20
f  102//20 100//20 104//20
f  80//20 102//20 104//20
f  105//76 106//76 107//77 108//78
f  109//79 110//80 111//81 112//79
f  113//82 114//82 115//83 116//83
f  116//83 115//83 117//84 118//84
f  112//23 119//23 114//85
f  116//20 120//20 113//86
f  118//84 117//84 106//76 105//76
f  109//79 112//79 114//82 113//82
f  108//20 120//20 105//87
f  109//88 120//20 110//20
f  105//87 120//20 118//89
f  113//86 120//20 109//88
f  118//89 120//20 116//20
f  111//23 119//23 112//23
f  115//23 119//23 117//90
f  114//85 119//23 115//23
f  106//23 119//23 107//23
f  117//90 119//23 106//23
f  121//1 122//2 123//2 124//1
f  122//2 125//3 126//3 123//2
f  125//3 127//4 128//4 126//3
f  127//4 129//5 130//5 128//4
f  129//5 131//6 132//6 130//5
f  131//6 133//91 134//91 132//6
f  133//91 135//92 136//92 134//91
f  135//92 137//9 138//9 136//92
f  137//9 139//93 140//93 138//9
f  139//93 141//94 142//94 140//93
f  141//94 143//12 144//12 142//94
f  143//12 121//13 124//13 144//12
f  122//95 121//96 145//97
f  125//96 122//95 145//97
f  127//98 125//96 145//97
f  129//99 127//98 145//97
f  131//20 129//99 145//97
f  133//100 131//20 145//97
f  135//101 133//100 145//97
f  137//102 135//101 145//97
f  139//103 137//102 145//97
f  141//104 139//103 145//97
f  143//20 141//104 145//97
f  121//96 143//20 145//97
f  146//6 147//6 148//6 149//6
f  150//23 151//23 152//23 153//23
f  149//105 150//105 153//105 154//105
f  155//3 146//3 149//3 154//3
f  148//9 147//9 156//9 157//9
f  151//106 148//106 157//106 152//106
f  157//12 154//12 153//12 152//12
f  155//12 154//12 157//12 156//12
f  149//6 148//6 151//6 150//6
f  158//9 159//9 160//9 161//9
f  162//23 163//23 164//23 165//23
f  166//3 167//3 168//3 169//3
f  162//107 161//107 160//107 163//107
f  166//108 165//108 164//108 167//108
f  170//9 171//9 172//9 173//9
f  174//23 175//23 176//23 177//23
f  178//3 179//3 180//3 181//3
f  174//107 177//107 172//107 171//107
f  178//108 181//108 176//108 175//108
f  182//6 183//6 184//6 185//6
f  185//9 184//9 186//9 187//9
f  187//12 186//12 188//12 189//12
f  189//23 182//23 185//23 187//23
f  183//109 188//109 186//109 184//109
f  190//12 191//12 192//12 193//12
f  191//9 194//9 195//9 192//9
f  194//6 196//6 197//6 195//6
f  196//23 194//23 191//23 190//23
f  193//110 192//110 195//110 197//110
f  198//111 199//112 200//113 201//114
f  199//115 202//116 203//117 200//118
f  202//116 204//119 205//120 203//117
f  204//119 206//121 207//122 205//120
f  206//121 208//123 209//124 207//122
f  208//123 210//125 211//126 209//124
f  210//125 212//127 213//128 211//126
f  212//127 198//111 201//114 213//128
f  201//129 200//130 214//131
f  200//130 203//132 214//131
f  203//132 205//133 214//131
f  205//133 207//134 214//131
f  207//134 209//135 214//131
f  209//135 211//136 214//131
f  211//136 213//137 214//131
f  213//137 201//129 214//131
f  215//138 216//139 217//140 218//141
f  216//142 219//143 220//144 217//142
f  219//143 221//145 222//145 220//144
f  221//145 223//146 224//147 222//145
f  223//146 225//148 226//149 224//147
f  225//148 227//150 228//151 226//149
f  227//150 229//152 230//152 228//151
f  229//152 215//138 218//141 230//152
f  231//153 232//154 233//155 234//156
f  232//157 235//158 236//159 233//160
f  235//158 237//161 238//162 236//159
f  237//161 239//163 240//164 238//162
f  239//163 241//165 242//166 240//164
f  241//165 243//167 244//168 242//166
f  243//167 245//169 246//170 244//168
f  245//169 231//153 234//156 246//170
f  243//171 241//172 239//173
f  235//174 232//175 231//176
f  238//177 240//178 244//179 246//180
f  238//177 246//180 234//181 236//182
f  236//182 234//181 233//183
f  244//179 240//178 242//184
f  235//174 231//176 245//185 237//186
f  243//171 239//173 237//186 245//185
f  247//12 248//12 249//12 250//12
f  248//9 251//9 252//9 249//9
f  251//6 253//6 254//6 252//6
f  253//23 251//23 248//23 247//23
f  250//110 249//110 252//110 254//110

