# Made in Blockbench 5.0.7
mtllib computer_backpack.mtl

o backpack
v 0.1875 0.8125 0.25
v 0.1875 0.6875 -0.0625
v 0.1875 0.1875 0.25
v 0.1875 0.25 -0.0625
v -0.1875 0.8125 0.25
v -0.1875 0.6875 -0.0625
v -0.1875 0.1875 0.25
v -0.1875 0.25 -0.0625
vt 0.375 0.9375
vt 0.21875 1
vt 0.21875 0.6875
vt 0.375 0.71875
vt 0.15625 0.34375
vt 0.15625 0.65625
vt 0 0.59375
vt 0 0.375
vt 0.40625 1
vt 0.40625 0.84375
vt 0.59375 0.84375
vt 0.59375 1
vt 0.1875 0.6875
vt 0.1875 1
vt 0 1
vt 0 0.6875
vt 0.375 0.65625
vt 0.1875 0.65625
vt 0.1875 0.4375
vt 0.375 0.4375
vt 0.59375 0.8125
vt 0.40625 0.8125
vt 0.40625 0.65625
vt 0.59375 0.65625
vn 1 0 0
vn -1 0 0
vn 0 -0.9805806756909203 -0.19611613513818407
vn 0 0 1
vn 0 0 -1
vn 0 0.9284766908852594 -0.3713906763541038
usemtl m_eed73e81-688b-57f3-67e9-02fce130fb86
f 2/1/1 1/2/1 3/3/1 4/4/1
f 7/5/2 5/6/2 6/7/2 8/8/2
f 4/9/3 3/10/3 7/11/3 8/12/3
f 3/13/4 1/14/4 5/15/4 7/16/4
f 6/17/5 2/18/5 4/19/5 8/20/5
f 5/21/6 1/22/6 2/23/6 6/24/6
o screen
v 0.140625 0.640625 -0.09375
v 0.140625 0.359375 -0.09375
v -0.140625 0.640625 -0.09375
v -0.140625 0.359375 -0.09375
vt 1 1
vt 0 1
vt 0 0
vt 1 0
vn 0 0 -1
usemtl m_7d1dbe6a-7bec-f4f9-2321-0eced23354b3
f 11/25/7 9/26/7 10/27/7 12/28/7
o frame
v 0.15625 0.65625 -0.0625
v 0.15625 0.65625 -0.125
v 0.15625 0.34375 -0.0625
v 0.15625 0.34375 -0.125
v -0.15625 0.65625 -0.0625
v -0.15625 0.65625 -0.125
v -0.15625 0.34375 -0.0625
v -0.15625 0.34375 -0.125
v 0.140625 0.640625 -0.125
v 0.140625 0.359375 -0.125
v -0.140625 0.640625 -0.125
v -0.140625 0.359375 -0.125
v 0.140625 0.640625 -0.0625
v 0.140625 0.359375 -0.0625
v -0.140625 0.640625 -0.0625
v -0.140625 0.359375 -0.0625
vt 0.4375 0.4375
vt 0.40625 0.4375
vt 0.40625 0.28125
vt 0.4375 0.28125
vt 0.5 0.28125
vt 0.5 0.4375
vt 0.46875 0.4375
vt 0.46875 0.28125
vt 0.53125 0.40625
vt 0.6875 0.40625
vt 0.6875 0.4375
vt 0.53125 0.4375
vt 0.34375 0.375
vt 0.34375 0.40625
vt 0.1875 0.40625
vt 0.1875 0.375
vt 0.4140625 0.6171875
vt 0.5546875 0.6171875
vt 0.5625 0.625
vt 0.40625 0.625
vt 0.4140625 0.4765625
vt 0.4140625 0.6171875
vt 0.40625 0.625
vt 0.40625 0.46875
vt 0.5546875 0.4765625
vt 0.4140625 0.4765625
vt 0.40625 0.46875
vt 0.5625 0.46875
vt 0.5546875 0.6171875
vt 0.5546875 0.4765625
vt 0.5625 0.46875
vt 0.5625 0.625
vt 0.75 0.625
vt 0.59375 0.625
vt 0.59375 0.59375
vt 0.75 0.59375
vt 0.65625 0.84375
vt 0.65625 1
vt 0.625 1
vt 0.625 0.84375
vt 0.59375 0.53125
vt 0.75 0.53125
vt 0.75 0.5625
vt 0.59375 0.5625
vt 0.625 0.8125
vt 0.625 0.65625
vt 0.65625 0.65625
vt 0.65625 0.8125
vn 1 0 0
vn -1 0 0
vn 0 1 0
vn 0 -1 0
vn 0 0 -1
vn 0 0 -1
vn 0 0 -1
vn 0 0 -1
vn 0 -1 0
vn -1 0 0
vn 0 1 0
vn 1 0 0
usemtl m_eed73e81-688b-57f3-67e9-02fce130fb86
f 14/29/8 13/30/8 15/31/8 16/32/8
f 19/33/9 17/34/9 18/35/9 20/36/9
f 17/37/10 13/38/10 14/39/10 18/40/10
f 16/41/11 15/42/11 19/43/11 20/44/11
f 21/45/12 23/46/12 18/47/12 14/48/12
f 22/49/13 21/50/13 14/51/13 16/52/13
f 24/53/14 22/54/14 16/55/14 20/56/14
f 23/57/15 24/58/15 20/59/15 18/60/15
f 25/61/16 27/62/16 23/63/16 21/64/16
f 26/65/17 25/66/17 21/67/17 22/68/17
f 28/69/18 26/70/18 22/71/18 24/72/18
f 27/73/19 28/74/19 24/75/19 23/76/19